# xmcd
#
# Track frame offsets:
#	150
#	13925
#	26860
#	38070
#	48675
#	70042
#	87345
#	99975
#	115125
#	130165
#	141190
#	155342
#	166292
#	185840
#	197940
#	209369
#	221978
#	233289
#	245037
#	254329
#	262923
#	277917
#	289690
#	301472
#	312116
#	324063
#	333569
#
# Disc length: 4618 seconds
#
# Revision: 0
# Processed by: cddbd v1.5.2PL0 Copyright (c) Steve Scherf et al.
# Submitted via: dBpowerAMP V4.0
#
DISCID=8c12081b
DTITLE=Robbie Fulks - South Mouth 
DYEAR=1997
DGENRE=Country
TTITLE0=01.Goodbye, Good-Lookin' 
TTITLE1=02.I Told Her Lies 
TTITLE2=03.Heart, I Wish You Were Here 
TTITLE3=04.I Push Right Over 
TTITLE4=05.Cold Statesville Ground 
TTITLE5=06.Forgotten But Not Gone 
TTITLE6=07.Busy Not Crying 
TTITLE7=08.I Was Just Leaving 
TTITLE8=09.What The Lord Hath Wrought (Any Fool Can Knock Down) 
TTITLE9=10.Dirty-Mouthed Flo 
TTITLE10=11.You Wouldn't Do That To Me 
TTITLE11=12.Fuck This Town 
TTITLE12=13.South Richmond Girl 
TTITLE13=14.Cry Cry Cry
TTITLE14=a
TTITLE15=b
TTITLE16=c
TTITLE17=d
TTITLE18=e
TTITLE19=f
TTITLE20=g
TTITLE21=h
TTITLE22=i
TTITLE23=j
TTITLE24=k
TTITLE25=l
TTITLE26=m
EXTD=
EXTT0=
EXTT1=
EXTT2=
EXTT3=
EXTT4=
EXTT5=
EXTT6=
EXTT7=
EXTT8=
EXTT9=
EXTT10=
EXTT11=
EXTT12=
EXTT13=
EXTT14=
EXTT15=
EXTT16=
EXTT17=
EXTT18=
EXTT19=
EXTT20=
EXTT21=
EXTT22=
EXTT23=
EXTT24=
EXTT25=
EXTT26=
PLAYORDER=
